<svg width="758" height="242" viewBox="0 0 758 242" fill="none" xmlns="http://www.w3.org/2000/svg">
<rect width="758" height="242" fill="white"/>
<path d="M156.49 198.934L146.778 196.544C146.156 199.079 146.549 201.757 147.875 204.006L156.49 198.934ZM166.595 189.439L157.38 185.548C157.208 185.956 157.063 186.375 156.947 186.803L166.595 189.439ZM171.923 144.727C167.147 141.95 161.027 143.57 158.254 148.344C155.481 153.118 157.104 159.239 161.88 162.016L171.923 144.727ZM126.342 160.761L120.115 168.582C125.33 172.736 132.989 179.517 138.946 186.224C141.947 189.603 144.221 192.635 145.572 195.064C147.191 197.975 146.404 198.068 146.778 196.544L156.49 198.934L166.201 201.324C167.738 195.063 165.142 189.113 163.048 185.349C160.686 181.103 157.343 176.83 153.895 172.947C146.951 165.13 138.373 157.563 132.569 152.941L126.342 160.761ZM156.49 198.934L147.875 204.006C149.529 206.815 153.538 211.817 160.451 211.21C166.112 210.713 169.39 206.565 170.557 204.959C173.463 200.954 175.339 195.388 176.242 192.075L166.595 189.439L156.947 186.803C156.624 187.985 156.168 189.382 155.64 190.673C155.076 192.052 154.604 192.879 154.369 193.202C154.257 193.356 154.419 193.086 154.925 192.694C155.43 192.302 156.712 191.46 158.689 191.287C160.876 191.095 162.709 191.823 163.881 192.669C164.874 193.384 165.204 194.031 165.105 193.863L156.49 198.934ZM166.595 189.439L175.809 193.33C178.095 187.909 180.918 179.306 181.816 170.926C182.264 166.752 182.307 162.004 181.155 157.512C179.971 152.895 177.307 147.856 171.923 144.727L166.902 153.371L161.88 162.016C161.284 161.669 161.487 161.318 161.783 162.469C162.11 163.746 162.245 165.847 161.931 168.781C161.305 174.618 159.186 181.265 157.38 185.548L166.595 189.439Z" fill="#3D76FB"/>
<path d="M99.4564 55.3372C92.6626 55.3098 56.5302 65.232 58.5685 86.2909C60.0662 101.765 61.0424 104.606 63.9668 116.516C66.2759 125.92 84.9227 184.786 89.5528 194.872C95.2283 207.236 99.7306 198.117 101.012 196.292C102.664 193.937 113.429 170.715 119.417 159.756C124.118 152.453 134.368 137.667 137.768 136.948C142.018 136.05 138.65 128.715 130.147 131.426C121.644 134.138 96.5973 132.664 94.9228 126.708" stroke="#002A8C" stroke-width="20" stroke-linecap="round" stroke-linejoin="round"/>
<path d="M156.656 104.895C156.656 107.661 155.956 109.712 154.557 111.047C153.157 112.349 151.188 113 148.648 113C146.044 113 144.042 112.349 142.643 111.047C141.243 109.712 140.543 107.661 140.543 104.895C140.543 102.095 141.243 100.061 142.643 98.791C144.042 97.5215 146.044 96.8867 148.648 96.8867C151.35 96.8867 153.352 97.5215 154.654 98.791C155.989 100.061 156.656 102.095 156.656 104.895Z" fill="#002A8C"/>
<path d="M97.6562 103.895C97.6562 106.661 96.9564 108.712 95.5566 110.047C94.1569 111.349 92.1875 112 89.6484 112C87.0443 112 85.0423 111.349 83.6426 110.047C82.2428 108.712 81.543 106.661 81.543 103.895C81.543 101.095 82.2428 99.0605 83.6426 97.791C85.0423 96.5215 87.0443 95.8867 89.6484 95.8867C92.3503 95.8867 94.3522 96.5215 95.6543 97.791C96.9889 99.0605 97.6562 101.095 97.6562 103.895Z" fill="#002A8C"/>
<path d="M214.5 99.3125C216.87 99.3125 219.07 99.612 221.102 100.211C223.159 100.81 224.943 101.708 226.453 102.906C227.99 104.078 229.188 105.549 230.047 107.32C230.932 109.091 231.375 111.161 231.375 113.531V137.75C231.375 139.781 231.154 141.578 230.711 143.141C230.268 144.677 229.682 146.018 228.953 147.164C228.25 148.284 227.443 149.247 226.531 150.055C225.62 150.836 224.695 151.474 223.758 151.969C221.518 153.167 218.979 153.844 216.141 154H203.172C201.688 154 200.542 153.753 199.734 153.258C198.927 152.737 198.341 152.06 197.977 151.227C197.612 150.367 197.391 149.404 197.312 148.336C197.26 147.268 197.234 146.161 197.234 145.016V108.219C197.234 107.099 197.26 106.005 197.312 104.938C197.391 103.87 197.612 102.919 197.977 102.086C198.341 101.253 198.927 100.589 199.734 100.094C200.542 99.5729 201.688 99.3125 203.172 99.3125H214.5ZM209.109 108.453V144.703H214.188C215.307 144.651 216.31 144.391 217.195 143.922C217.56 143.74 217.924 143.492 218.289 143.18C218.654 142.867 218.979 142.503 219.266 142.086C219.552 141.643 219.773 141.122 219.93 140.523C220.112 139.924 220.203 139.234 220.203 138.453V115.406C220.203 114.547 220.112 113.792 219.93 113.141C219.773 112.464 219.552 111.878 219.266 111.383C218.979 110.888 218.654 110.471 218.289 110.133C217.924 109.794 217.56 109.521 217.195 109.312C216.31 108.818 215.307 108.531 214.188 108.453H209.109ZM261.375 99.3125C262.417 99.3125 263.471 99.3516 264.539 99.4297C265.607 99.5078 266.57 99.7292 267.43 100.094C268.289 100.458 268.992 101.018 269.539 101.773C270.086 102.503 270.359 103.531 270.359 104.859C270.359 106.188 270.086 107.229 269.539 107.984C268.992 108.714 268.289 109.26 267.43 109.625C266.57 109.99 265.607 110.211 264.539 110.289C263.471 110.367 262.417 110.406 261.375 110.406H252.078V121.031H257C258.042 121.031 259.083 121.07 260.125 121.148C261.193 121.201 262.13 121.409 262.938 121.773C263.771 122.112 264.448 122.646 264.969 123.375C265.49 124.078 265.75 125.068 265.75 126.344C265.75 127.646 265.49 128.648 264.969 129.352C264.448 130.055 263.771 130.589 262.938 130.953C262.13 131.292 261.193 131.5 260.125 131.578C259.083 131.63 258.042 131.656 257 131.656H252.078V142.906H261.375C262.417 142.906 263.471 142.945 264.539 143.023C265.607 143.102 266.57 143.323 267.43 143.688C268.289 144.026 268.992 144.573 269.539 145.328C270.086 146.057 270.359 147.073 270.359 148.375C270.359 149.729 270.073 150.784 269.5 151.539C268.953 152.294 268.25 152.854 267.391 153.219C266.531 153.583 265.568 153.805 264.5 153.883C263.432 153.961 262.391 154 261.375 154H246.062C244.604 154 243.471 153.74 242.664 153.219C241.883 152.698 241.31 152.021 240.945 151.188C240.581 150.328 240.359 149.365 240.281 148.297C240.229 147.229 240.203 146.135 240.203 145.016V108.297C240.203 107.177 240.229 106.083 240.281 105.016C240.359 103.948 240.581 102.997 240.945 102.164C241.31 101.305 241.883 100.615 242.664 100.094C243.471 99.5729 244.604 99.3125 246.062 99.3125H261.375ZM309.031 137.828H309.969V105.406C309.969 104.573 310.021 103.792 310.125 103.062C310.229 102.307 310.451 101.656 310.789 101.109C311.154 100.562 311.674 100.133 312.352 99.8203C313.055 99.4818 314.005 99.3125 315.203 99.3125C316.531 99.3125 317.573 99.4818 318.328 99.8203C319.109 100.133 319.695 100.562 320.086 101.109C320.477 101.656 320.724 102.307 320.828 103.062C320.932 103.792 320.984 104.573 320.984 105.406V145.016C320.984 146.161 320.945 147.268 320.867 148.336C320.815 149.404 320.607 150.367 320.242 151.227C319.904 152.06 319.331 152.737 318.523 153.258C317.742 153.753 316.635 154 315.203 154H310.047C308.823 154 307.794 153.766 306.961 153.297C306.154 152.802 305.477 152.216 304.93 151.539C304.383 150.836 303.94 150.107 303.602 149.352C303.289 148.596 303.042 147.958 302.859 147.438L291.062 115.484H290.125V147.906C290.125 148.74 290.073 149.534 289.969 150.289C289.865 151.018 289.63 151.656 289.266 152.203C288.927 152.75 288.406 153.193 287.703 153.531C287.026 153.844 286.089 154 284.891 154C283.536 154 282.469 153.844 281.688 153.531C280.906 153.193 280.32 152.75 279.93 152.203C279.539 151.656 279.292 151.018 279.188 150.289C279.083 149.534 279.031 148.74 279.031 147.906V108.297C279.031 107.177 279.057 106.083 279.109 105.016C279.188 103.922 279.409 102.958 279.773 102.125C280.138 101.266 280.711 100.589 281.492 100.094C282.299 99.5729 283.432 99.3125 284.891 99.3125H290.047C291.349 99.3125 292.404 99.5729 293.211 100.094C294.044 100.589 294.721 101.135 295.242 101.734C295.815 102.438 296.271 103.245 296.609 104.156L309.031 137.828ZM355.516 99.3125C356.557 99.3125 357.599 99.3516 358.641 99.4297C359.708 99.5078 360.672 99.7292 361.531 100.094C362.391 100.458 363.081 101.018 363.602 101.773C364.148 102.503 364.422 103.531 364.422 104.859C364.422 106.161 364.148 107.19 363.602 107.945C363.081 108.674 362.391 109.221 361.531 109.586C360.672 109.951 359.708 110.185 358.641 110.289C357.599 110.367 356.557 110.406 355.516 110.406H351.531V145.094C351.531 146.214 351.492 147.307 351.414 148.375C351.362 149.443 351.154 150.393 350.789 151.227C350.424 152.06 349.839 152.737 349.031 153.258C348.224 153.753 347.078 154 345.594 154C344.109 154 342.964 153.753 342.156 153.258C341.349 152.737 340.763 152.06 340.398 151.227C340.034 150.393 339.812 149.443 339.734 148.375C339.682 147.307 339.656 146.214 339.656 145.094V110.406H335.672C334.63 110.406 333.576 110.367 332.508 110.289C331.466 110.185 330.516 109.951 329.656 109.586C328.797 109.221 328.094 108.674 327.547 107.945C327.026 107.19 326.766 106.161 326.766 104.859C326.766 103.531 327.026 102.503 327.547 101.773C328.094 101.018 328.797 100.458 329.656 100.094C330.516 99.7292 331.466 99.5078 332.508 99.4297C333.576 99.3516 334.63 99.3125 335.672 99.3125H355.516ZM391.375 99.3125C392.417 99.3125 393.471 99.3516 394.539 99.4297C395.607 99.5078 396.57 99.7292 397.43 100.094C398.289 100.458 398.992 101.018 399.539 101.773C400.086 102.503 400.359 103.531 400.359 104.859C400.359 106.188 400.086 107.229 399.539 107.984C398.992 108.714 398.289 109.26 397.43 109.625C396.57 109.99 395.607 110.211 394.539 110.289C393.471 110.367 392.417 110.406 391.375 110.406H382.078V121.031H387C388.042 121.031 389.083 121.07 390.125 121.148C391.193 121.201 392.13 121.409 392.938 121.773C393.771 122.112 394.448 122.646 394.969 123.375C395.49 124.078 395.75 125.068 395.75 126.344C395.75 127.646 395.49 128.648 394.969 129.352C394.448 130.055 393.771 130.589 392.938 130.953C392.13 131.292 391.193 131.5 390.125 131.578C389.083 131.63 388.042 131.656 387 131.656H382.078V142.906H391.375C392.417 142.906 393.471 142.945 394.539 143.023C395.607 143.102 396.57 143.323 397.43 143.688C398.289 144.026 398.992 144.573 399.539 145.328C400.086 146.057 400.359 147.073 400.359 148.375C400.359 149.729 400.073 150.784 399.5 151.539C398.953 152.294 398.25 152.854 397.391 153.219C396.531 153.583 395.568 153.805 394.5 153.883C393.432 153.961 392.391 154 391.375 154H376.062C374.604 154 373.471 153.74 372.664 153.219C371.883 152.698 371.31 152.021 370.945 151.188C370.581 150.328 370.359 149.365 370.281 148.297C370.229 147.229 370.203 146.135 370.203 145.016V108.297C370.203 107.177 370.229 106.083 370.281 105.016C370.359 103.948 370.581 102.997 370.945 102.164C371.31 101.305 371.883 100.615 372.664 100.094C373.471 99.5729 374.604 99.3125 376.062 99.3125H391.375ZM418.641 130.406H431.062L425.281 109.469H424.422L418.641 130.406ZM443.172 134.234C443.224 136.005 443.289 137.815 443.367 139.664C443.445 141.513 443.484 143.297 443.484 145.016V146.188C443.484 147.177 443.445 148.141 443.367 149.078C443.315 149.99 443.12 150.823 442.781 151.578C442.443 152.307 441.909 152.893 441.18 153.336C440.451 153.779 439.422 154 438.094 154C436.74 154 435.698 153.779 434.969 153.336C434.24 152.893 433.693 152.307 433.328 151.578C432.99 150.849 432.781 150.016 432.703 149.078C432.651 148.141 432.625 147.177 432.625 146.188V140.719H417V146.188C417 147.177 416.961 148.141 416.883 149.078C416.831 150.016 416.622 150.849 416.258 151.578C415.919 152.307 415.385 152.893 414.656 153.336C413.927 153.779 412.885 154 411.531 154C410.177 154 409.135 153.779 408.406 153.336C407.677 152.893 407.143 152.307 406.805 151.578C406.466 150.823 406.271 149.99 406.219 149.078C406.167 148.141 406.141 147.177 406.141 146.188V145.016C406.141 144.208 406.141 143.349 406.141 142.438C406.167 141.526 406.193 140.602 406.219 139.664C406.245 138.727 406.271 137.802 406.297 136.891C406.323 135.953 406.349 135.068 406.375 134.234C407.677 129.703 409.044 125.12 410.477 120.484C411.909 115.823 413.276 111.214 414.578 106.656C414.839 105.693 415.151 104.768 415.516 103.883C415.88 102.971 416.362 102.19 416.961 101.539C417.56 100.862 418.328 100.328 419.266 99.9375C420.203 99.5208 421.401 99.3125 422.859 99.3125H426.766C428.198 99.3125 429.383 99.5208 430.32 99.9375C431.284 100.328 432.065 100.862 432.664 101.539C433.263 102.19 433.732 102.971 434.07 103.883C434.435 104.768 434.76 105.693 435.047 106.656L443.172 134.234ZM461.922 113.062C461.948 114.156 462.26 115.146 462.859 116.031C463.484 116.891 464.292 117.711 465.281 118.492C466.297 119.273 467.443 120.042 468.719 120.797C469.995 121.526 471.297 122.307 472.625 123.141C473.979 123.948 475.294 124.833 476.57 125.797C477.846 126.76 478.992 127.854 480.008 129.078C481.023 130.302 481.844 131.682 482.469 133.219C483.094 134.755 483.432 136.5 483.484 138.453V138.766C483.484 140.901 483.224 142.763 482.703 144.352C482.182 145.94 481.492 147.307 480.633 148.453C479.773 149.599 478.771 150.549 477.625 151.305C476.479 152.034 475.268 152.62 473.992 153.062C472.742 153.505 471.466 153.818 470.164 154C468.888 154.182 467.677 154.286 466.531 154.312H466.141C463.927 154.312 461.987 154.091 460.32 153.648C458.654 153.206 457.221 152.62 456.023 151.891C454.826 151.135 453.823 150.276 453.016 149.312C452.234 148.349 451.609 147.359 451.141 146.344C450.672 145.302 450.333 144.273 450.125 143.258C449.917 142.242 449.812 141.292 449.812 140.406C449.812 139.495 449.969 138.701 450.281 138.023C450.594 137.346 450.997 136.799 451.492 136.383C452.013 135.94 452.599 135.615 453.25 135.406C453.927 135.198 454.63 135.094 455.359 135.094C456.036 135.094 456.727 135.198 457.43 135.406C458.159 135.615 458.81 135.94 459.383 136.383C459.982 136.799 460.464 137.346 460.828 138.023C461.219 138.674 461.427 139.443 461.453 140.328C461.505 142.281 461.948 143.622 462.781 144.352C463.615 145.055 464.812 145.406 466.375 145.406C467.156 145.38 467.872 145.289 468.523 145.133C469.201 144.951 469.773 144.651 470.242 144.234C470.711 143.792 471.076 143.219 471.336 142.516C471.622 141.786 471.766 140.875 471.766 139.781C471.766 138.427 471.453 137.203 470.828 136.109C470.229 135.016 469.435 134 468.445 133.062C467.456 132.125 466.323 131.24 465.047 130.406C463.771 129.547 462.469 128.701 461.141 127.867C459.812 127.008 458.51 126.122 457.234 125.211C455.984 124.273 454.852 123.258 453.836 122.164C452.82 121.07 452 119.859 451.375 118.531C450.776 117.203 450.464 115.693 450.438 114V113.375C450.464 110.589 450.828 108.271 451.531 106.422C452.26 104.573 453.315 103.102 454.695 102.008C456.102 100.914 457.82 100.146 459.852 99.7031C461.883 99.2344 464.214 99 466.844 99H467.859C470.255 99 472.286 99.2604 473.953 99.7812C475.62 100.302 477 100.966 478.094 101.773C479.214 102.581 480.086 103.492 480.711 104.508C481.362 105.523 481.844 106.526 482.156 107.516C482.469 108.505 482.664 109.43 482.742 110.289C482.82 111.148 482.859 111.839 482.859 112.359C482.859 113.141 482.703 113.857 482.391 114.508C482.104 115.133 481.701 115.667 481.18 116.109C480.685 116.552 480.086 116.904 479.383 117.164C478.706 117.398 477.964 117.516 477.156 117.516C476.531 117.516 475.906 117.398 475.281 117.164C474.656 116.904 474.096 116.578 473.602 116.188C473.107 115.797 472.703 115.354 472.391 114.859C472.078 114.339 471.922 113.818 471.922 113.297C471.922 111.161 471.531 109.677 470.75 108.844C469.995 108.01 468.875 107.594 467.391 107.594C466.688 107.594 465.997 107.633 465.32 107.711C464.669 107.789 464.083 108.01 463.562 108.375C463.068 108.714 462.664 109.247 462.352 109.977C462.065 110.706 461.922 111.734 461.922 113.062ZM512.625 99.3125C513.667 99.3125 514.721 99.3516 515.789 99.4297C516.857 99.5078 517.82 99.7292 518.68 100.094C519.539 100.458 520.242 101.018 520.789 101.773C521.336 102.503 521.609 103.531 521.609 104.859C521.609 106.188 521.336 107.229 520.789 107.984C520.242 108.714 519.539 109.26 518.68 109.625C517.82 109.99 516.857 110.211 515.789 110.289C514.721 110.367 513.667 110.406 512.625 110.406H503.328V121.031H508.25C509.292 121.031 510.333 121.07 511.375 121.148C512.443 121.201 513.38 121.409 514.188 121.773C515.021 122.112 515.698 122.646 516.219 123.375C516.74 124.078 517 125.068 517 126.344C517 127.646 516.74 128.648 516.219 129.352C515.698 130.055 515.021 130.589 514.188 130.953C513.38 131.292 512.443 131.5 511.375 131.578C510.333 131.63 509.292 131.656 508.25 131.656H503.328V142.906H512.625C513.667 142.906 514.721 142.945 515.789 143.023C516.857 143.102 517.82 143.323 518.68 143.688C519.539 144.026 520.242 144.573 520.789 145.328C521.336 146.057 521.609 147.073 521.609 148.375C521.609 149.729 521.323 150.784 520.75 151.539C520.203 152.294 519.5 152.854 518.641 153.219C517.781 153.583 516.818 153.805 515.75 153.883C514.682 153.961 513.641 154 512.625 154H497.312C495.854 154 494.721 153.74 493.914 153.219C493.133 152.698 492.56 152.021 492.195 151.188C491.831 150.328 491.609 149.365 491.531 148.297C491.479 147.229 491.453 146.135 491.453 145.016V108.297C491.453 107.177 491.479 106.083 491.531 105.016C491.609 103.948 491.831 102.997 492.195 102.164C492.56 101.305 493.133 100.615 493.914 100.094C494.721 99.5729 495.854 99.3125 497.312 99.3125H512.625Z" fill="#002A8C"/>
</svg>
